<mxfile host="app.diagrams.net" agent="Mozilla/5.0 (X11; Linux x86_64; rv:142.0) Gecko/20100101 Firefox/142.0" version="28.1.2">
  <diagram name="Page-1" id="lJJ2WCTsfUAfGnqkNitP">
    <mxGraphModel dx="1478" dy="874" grid="1" gridSize="10" guides="1" tooltips="1" connect="1" arrows="1" fold="1" page="1" pageScale="1" pageWidth="850" pageHeight="1100" math="0" shadow="0">
      <root>
        <mxCell id="0" />
        <mxCell id="1" parent="0" />
        <mxCell id="HWwObs3WVSBn3xBXuyly-1" value="&lt;div&gt;SupportHandler&lt;/div&gt;&lt;div&gt;abstract&lt;/div&gt;" style="swimlane;fontStyle=0;childLayout=stackLayout;horizontal=1;startSize=50;fillColor=none;horizontalStack=0;resizeParent=1;resizeParentMax=0;resizeLast=0;collapsible=1;marginBottom=0;whiteSpace=wrap;html=1;" vertex="1" parent="1">
          <mxGeometry x="210" y="180" width="230" height="154" as="geometry" />
        </mxCell>
        <mxCell id="HWwObs3WVSBn3xBXuyly-2" value="+ __init__()" style="text;strokeColor=none;fillColor=none;align=left;verticalAlign=top;spacingLeft=4;spacingRight=4;overflow=hidden;rotatable=0;points=[[0,0.5],[1,0.5]];portConstraint=eastwest;whiteSpace=wrap;html=1;" vertex="1" parent="HWwObs3WVSBn3xBXuyly-1">
          <mxGeometry y="50" width="230" height="26" as="geometry" />
        </mxCell>
        <mxCell id="HWwObs3WVSBn3xBXuyly-3" value="+ _next_handler:&amp;nbsp;" style="text;strokeColor=none;fillColor=none;align=left;verticalAlign=top;spacingLeft=4;spacingRight=4;overflow=hidden;rotatable=0;points=[[0,0.5],[1,0.5]];portConstraint=eastwest;whiteSpace=wrap;html=1;" vertex="1" parent="HWwObs3WVSBn3xBXuyly-1">
          <mxGeometry y="76" width="230" height="26" as="geometry" />
        </mxCell>
        <mxCell id="HWwObs3WVSBn3xBXuyly-4" value="+ set_next(handler)" style="text;strokeColor=none;fillColor=none;align=left;verticalAlign=top;spacingLeft=4;spacingRight=4;overflow=hidden;rotatable=0;points=[[0,0.5],[1,0.5]];portConstraint=eastwest;whiteSpace=wrap;html=1;" vertex="1" parent="HWwObs3WVSBn3xBXuyly-1">
          <mxGeometry y="102" width="230" height="26" as="geometry" />
        </mxCell>
        <mxCell id="HWwObs3WVSBn3xBXuyly-5" value="+ handle(request)" style="text;strokeColor=none;fillColor=none;align=left;verticalAlign=top;spacingLeft=4;spacingRight=4;overflow=hidden;rotatable=0;points=[[0,0.5],[1,0.5]];portConstraint=eastwest;whiteSpace=wrap;html=1;" vertex="1" parent="HWwObs3WVSBn3xBXuyly-1">
          <mxGeometry y="128" width="230" height="26" as="geometry" />
        </mxCell>
        <mxCell id="HWwObs3WVSBn3xBXuyly-17" value="TechnicalSupport" style="swimlane;fontStyle=1;align=center;verticalAlign=top;childLayout=stackLayout;horizontal=1;startSize=26;horizontalStack=0;resizeParent=1;resizeParentMax=0;resizeLast=0;collapsible=1;marginBottom=0;whiteSpace=wrap;html=1;" vertex="1" parent="1">
          <mxGeometry x="70" y="470" width="160" height="56" as="geometry" />
        </mxCell>
        <mxCell id="HWwObs3WVSBn3xBXuyly-18" value="+handle(request)" style="text;strokeColor=none;fillColor=none;align=left;verticalAlign=top;spacingLeft=4;spacingRight=4;overflow=hidden;rotatable=0;points=[[0,0.5],[1,0.5]];portConstraint=eastwest;whiteSpace=wrap;html=1;" vertex="1" parent="HWwObs3WVSBn3xBXuyly-17">
          <mxGeometry y="26" width="160" height="30" as="geometry" />
        </mxCell>
        <mxCell id="HWwObs3WVSBn3xBXuyly-19" value="ManagerSupport" style="swimlane;fontStyle=1;align=center;verticalAlign=top;childLayout=stackLayout;horizontal=1;startSize=26;horizontalStack=0;resizeParent=1;resizeParentMax=0;resizeLast=0;collapsible=1;marginBottom=0;whiteSpace=wrap;html=1;" vertex="1" parent="1">
          <mxGeometry x="240" y="470" width="160" height="56" as="geometry" />
        </mxCell>
        <mxCell id="HWwObs3WVSBn3xBXuyly-20" value="+handle(request)" style="text;strokeColor=none;fillColor=none;align=left;verticalAlign=top;spacingLeft=4;spacingRight=4;overflow=hidden;rotatable=0;points=[[0,0.5],[1,0.5]];portConstraint=eastwest;whiteSpace=wrap;html=1;" vertex="1" parent="HWwObs3WVSBn3xBXuyly-19">
          <mxGeometry y="26" width="160" height="30" as="geometry" />
        </mxCell>
        <mxCell id="HWwObs3WVSBn3xBXuyly-21" value="SpecialistSupport" style="swimlane;fontStyle=1;align=center;verticalAlign=top;childLayout=stackLayout;horizontal=1;startSize=26;horizontalStack=0;resizeParent=1;resizeParentMax=0;resizeLast=0;collapsible=1;marginBottom=0;whiteSpace=wrap;html=1;" vertex="1" parent="1">
          <mxGeometry x="410" y="470" width="160" height="56" as="geometry" />
        </mxCell>
        <mxCell id="HWwObs3WVSBn3xBXuyly-22" value="+handle(request)" style="text;strokeColor=none;fillColor=none;align=left;verticalAlign=top;spacingLeft=4;spacingRight=4;overflow=hidden;rotatable=0;points=[[0,0.5],[1,0.5]];portConstraint=eastwest;whiteSpace=wrap;html=1;" vertex="1" parent="HWwObs3WVSBn3xBXuyly-21">
          <mxGeometry y="26" width="160" height="30" as="geometry" />
        </mxCell>
        <mxCell id="HWwObs3WVSBn3xBXuyly-23" value="Request" style="swimlane;fontStyle=0;childLayout=stackLayout;horizontal=1;startSize=30;fillColor=none;horizontalStack=0;resizeParent=1;resizeParentMax=0;resizeLast=0;collapsible=1;marginBottom=0;whiteSpace=wrap;html=1;" vertex="1" parent="1">
          <mxGeometry x="-20" y="210" width="150" height="80" as="geometry" />
        </mxCell>
        <mxCell id="HWwObs3WVSBn3xBXuyly-24" value="+ __init__(description, request_type, complexity)" style="text;strokeColor=none;fillColor=none;align=left;verticalAlign=top;spacingLeft=4;spacingRight=4;overflow=hidden;rotatable=0;points=[[0,0.5],[1,0.5]];portConstraint=eastwest;whiteSpace=wrap;html=1;" vertex="1" parent="HWwObs3WVSBn3xBXuyly-23">
          <mxGeometry y="30" width="150" height="50" as="geometry" />
        </mxCell>
        <mxCell id="HWwObs3WVSBn3xBXuyly-27" value="&amp;nbsp;" style="text;whiteSpace=wrap;html=1;" vertex="1" parent="1">
          <mxGeometry x="-140" y="30" width="40" height="40" as="geometry" />
        </mxCell>
        <mxCell id="HWwObs3WVSBn3xBXuyly-28" value="&amp;nbsp;" style="text;whiteSpace=wrap;html=1;" vertex="1" parent="1">
          <mxGeometry x="-210" y="460" width="40" height="40" as="geometry" />
        </mxCell>
        <mxCell id="HWwObs3WVSBn3xBXuyly-31" value="" style="endArrow=classic;html=1;rounded=0;fontSize=12;startSize=8;endSize=8;curved=1;entryX=0.7;entryY=1.003;entryDx=0;entryDy=0;entryPerimeter=0;" edge="1" parent="1" source="HWwObs3WVSBn3xBXuyly-21" target="HWwObs3WVSBn3xBXuyly-5">
          <mxGeometry width="50" height="50" relative="1" as="geometry">
            <mxPoint x="290" y="812" as="sourcePoint" />
            <mxPoint x="391.92999999999984" y="363.1199999999999" as="targetPoint" />
          </mxGeometry>
        </mxCell>
        <mxCell id="HWwObs3WVSBn3xBXuyly-32" value="" style="endArrow=classic;html=1;rounded=0;fontSize=12;startSize=8;endSize=8;curved=1;entryX=0.524;entryY=0.91;entryDx=0;entryDy=0;entryPerimeter=0;exitX=0.5;exitY=0;exitDx=0;exitDy=0;" edge="1" parent="1" source="HWwObs3WVSBn3xBXuyly-19" target="HWwObs3WVSBn3xBXuyly-5">
          <mxGeometry width="50" height="50" relative="1" as="geometry">
            <mxPoint x="240" y="522" as="sourcePoint" />
            <mxPoint x="327" y="360" as="targetPoint" />
          </mxGeometry>
        </mxCell>
        <mxCell id="HWwObs3WVSBn3xBXuyly-33" value="" style="endArrow=classic;html=1;rounded=0;fontSize=12;startSize=8;endSize=8;curved=1;entryX=0.208;entryY=1.096;entryDx=0;entryDy=0;entryPerimeter=0;exitX=0.574;exitY=0.051;exitDx=0;exitDy=0;exitPerimeter=0;" edge="1" parent="1" source="HWwObs3WVSBn3xBXuyly-17" target="HWwObs3WVSBn3xBXuyly-5">
          <mxGeometry width="50" height="50" relative="1" as="geometry">
            <mxPoint x="153" y="526" as="sourcePoint" />
            <mxPoint x="240" y="364" as="targetPoint" />
          </mxGeometry>
        </mxCell>
        <mxCell id="HWwObs3WVSBn3xBXuyly-35" value="Use" style="endArrow=open;endSize=12;dashed=1;html=1;rounded=0;entryX=0;entryY=0.5;entryDx=0;entryDy=0;exitX=1;exitY=0.5;exitDx=0;exitDy=0;" edge="1" parent="1" source="HWwObs3WVSBn3xBXuyly-24" target="HWwObs3WVSBn3xBXuyly-3">
          <mxGeometry width="160" relative="1" as="geometry">
            <mxPoint x="190" y="350" as="sourcePoint" />
            <mxPoint x="350" y="350" as="targetPoint" />
          </mxGeometry>
        </mxCell>
        <mxCell id="HWwObs3WVSBn3xBXuyly-36" value="наследники" style="text;html=1;align=center;verticalAlign=middle;resizable=0;points=[];autosize=1;strokeColor=none;fillColor=none;" vertex="1" parent="1">
          <mxGeometry x="250" y="538" width="80" height="30" as="geometry" />
        </mxCell>
        <mxCell id="HWwObs3WVSBn3xBXuyly-37" value="использование, передает в метод" style="text;html=1;align=center;verticalAlign=middle;resizable=0;points=[];autosize=1;strokeColor=none;fillColor=none;" vertex="1" parent="1">
          <mxGeometry x="-45" y="298" width="190" height="30" as="geometry" />
        </mxCell>
      </root>
    </mxGraphModel>
  </diagram>
</mxfile>
